<svg xmlns="http://www.w3.org/2000/svg" width="425.7645" height="329.1768" viewBox="0 0 425.7645 329.1768">
  <g id="katman_2" data-name="katman 2">
    <g id="katman_1-2" data-name="katman 1">
      <g>
        <path d="M271.6047,228.3915c2.0569,1.8511,4.2166,3.5994,6.2734,5.4506,5.1421-3.908,10.3873-7.7132,15.6322-11.5185.72-13.4723,1.1312-27.2531,1.3367-41.1367-5.862-3.3936-11.7237-6.7876-17.6888-10.0783Q274.3814,199.6472,271.6047,228.3915Z" style="fill: none"/>
        <path d="M333.1041,65.3873c20.5683,6.89,40.4165,15.3234,56.1516,31.47-48.4385-25.71-99.9622-39.4912-154.88-38.4628-54.1978,1.0284-107.0582,8.9475-157.7592,31.161,4.4222,7.199,8.33,13.678,12.7524,20.8769,0-3.2911,0-5.6563.1029-9.4617,9.6671,8.5359,18.2029,16.1464,26.7388,23.7565-3.8051-11.0041-10.5927-20.6712-10.387-34.5548,28.7957,27.9731,62.2192,42.5764,100.9905,50.3924-6.1705-7.816-11.21-14.1919-16.2487-20.6712.3083-.6171.5142-1.2341.8225-1.7483,36.8173,17.8942,76.823,13.5751,115.3886,18.82-24.3737-17.0717-50.3924-31.675-64.6874-59.34,7.9188,5.862,15.3234,12.3411,22.728,19.0258,17.1746,15.5291,36.0975,27.9729,59.34,31.7778,20.98,3.3938,42.3711,4.1137,60.6766-8.7415C406.0194,104.775,410.9555,87.395,398.4091,65.49c-2.777-4.8336-5.2449-10.0785-8.8444-14.295-12.7524-15.1177-27.9732-24.8877-49.0558-19.7456-4.1136,1.0284-8.33,1.3369-12.5467,1.954-.1028-.4114-.2059-.9256-.3085-1.337,10.1813-3.908,20.26-7.8159,32.2923-12.341-11.21-3.2909-20.4655-6.479-30.03-8.7415C313.77,7.0754,297.7268,7.59,282.1977,14.3772c-10.9013,4.7307-21.9051,9.4614-32.8065,14.1919-5.862,2.571-11.8268,5.1421-17.6888,7.7131-.3085-.6171-.72-1.2341-1.0284-1.8509,13.5751-8.8446,27.253-17.689,42.3708-27.5616-64.07-18.6143-115.5939,2.16-161.8727,43.5021,12.341-16.9689,30.03-27.7673,45.8675-40.8284-28.4874,1.3369-51.9351,11.93-68.904,36.2005-1.44-2.777-2.4682-4.8338-3.908-7.61-2.9824,5.3478-5.6563,10.0785-8.433,15.2206-3.4966-3.7026-6.3764-6.6847-9.8728-10.3873C65.4076,47.9033,64.79,51.6056,64.79,55.411c-.3083,12.5467-5.039,20.4653-17.7914,25.4019C30.9556,86.9834,16.0436,96.1363,0,104.4665c9.05,9.05,9.4617,9.1529,17.8945,4.1137A420.1275,420.1275,0,0,1,181.31,53.2513C232.6277,47.0815,283.5344,48.727,333.1041,65.3873Z"/>
        <path d="M177.6074,188.7974c-3.7023,1.6455-7.4046,3.2909-11.1067,5.0392,1.1313-15.5291,2.3652-30.9553,3.7023-46.4847,2.88-4.8335,4.8336-7.5072,5.7592-7.8159-15.94.9255-31.8809,2.16-47.7186,3.8053,3.1884-.1031,5.2452.72,6.0677,2.3652a23.7855,23.7855,0,0,1,.72,4.4222c.1029.8225-.6173,2.9821-2.16,6.6847q-13.729,33.6288-25.0931,67.7724-18.975-30.3889-40.006-59.9562a16.1005,16.1005,0,0,1-2.3651-3.908c-.8227-4.7307-.1031-7.61,2.16-8.5356-1.7485.2056-3.4966.3083-5.348.5142-12.4439,2.9824-24.8877,6.2733-37.2287,9.77-1.5426.3083-3.1881.72-4.7307,1.0285a8.2068,8.2068,0,0,1,4.8335,1.7483c1.2344,1.0284,2.4682,2.16,3.5995,3.1881q8.1759,22.0594,16.0433,44.1191-6.0159-.9256-12.0325-1.851c6.2734,15.1178,12.5467,30.3383,18.5115,45.5587-2.8795-1.0284-5.7591-1.954-8.6387-2.8794,10.9013,25.0932,21.3911,50.3925,31.2639,75.7944-1.6455-15.632-3.2909-31.2639-4.7307-46.793,2.7767,2.7768,5.6563,5.5535,8.33,8.33-3.4966-16.66-7.0961-33.2176-10.6955-49.8782.4113.4113.72.9256,1.1312,1.3369,3.3938,3.1881,6.7878,6.3762,10.1813,9.6671-2.8793-15.5293-5.6563-31.161-8.5356-46.69Q91.58,229.6774,111.48,255.2336c8.5359-23.6536,18.1-47.1012,28.4874-70.4465,1.6455,18.6143,3.2909,37.2289,5.039,55.843,2.3653-4.0108,4.731-8.0216,7.1989-12.0327.2059-.5142.5142-1.1313.72-1.6455,1.0284,16.9689,2.16,33.9378,3.1881,50.9067,1.954-3.3936,3.8052-6.89,5.7592-10.2842,2.7769,15.4263,5.4506,30.9554,8.1245,46.3816q4.0109-40.7249,9.5642-81.4506c-2.4681,1.7483-5.0392,3.3938-7.5074,5.1421C173.8023,221.2954,175.6534,205.0464,177.6074,188.7974Z"/>
        <path d="M239.4153,181.7013c.8225-3.3935-2.777-7.9188-11.0043-13.3694-5.7592-3.8051-11.21-7.1989-16.4547-10.1813-13.6777,6.9932-21.0825,11.6211-22.5223,13.3694a3.9413,3.9413,0,0,0-1.0284,2.9824c.1031,3.0853,1.5426,5.9648,4.0108,8.6387,2.3654,2.4682,4.7307,5.0392,7.0961,7.5075,1.5426-.1031,3.1881-.206,4.7307-.3086-.72-2.16-1.44-4.2165-2.2625-6.3762-.1029-2.3653,2.6739-5.142,8.33-8.2273q5.0906-2.7768,6.1705-3.3938c1.1312-.5142,2.2625-1.0284,3.4966-1.6455.2057,19.0258.4113,38.1543.5142,57.18-.8228,2.571-2.4682,3.8051-4.7307,3.5994-4.32-5.0392-6.5819-11.8268-6.7878-20.5683a48.4586,48.4586,0,0,1,.3085-5.4506c-.2059-2.7768,2.16-6.5817,7.1989-11.4155l-14.8092,6.17c-6.6847,2.777-11.1067,6.5819-13.4723,11.1069,6.6847,23.4477,12.6493,34.5549,18.82,33.3207,4.4222-2.6741,8.9475-5.4506,13.4723-8.0216,0,2.3653,0,4.7307.1031,6.9932-.4114,1.5426.1029,2.3651,1.5426,2.3651,1.5427,0,4.2165-1.2341,7.816-3.4966,5.2449-5.2449,10.5925-10.49,16.0433-15.6319-2.6739-.2059-5.3477-.3085-8.1242-.5142C238.49,211.4226,239.0039,196.5105,239.4153,181.7013Z"/>
        <path d="M309.2448,169.6688c-6.5816-3.1881-11.2095-5.7591-13.7805-7.7131,0,2.3651-.1031,5.45-.2059,9.1529-6.3762-3.4966-12.7524-6.9932-19.334-10.3873-8.4333,9.3589-16.6606,18.82-24.6821,28.2815,1.3368,14.8092,2.468,29.6184,3.6,44.4279,6.89,4.0108,13.6777,8.1244,20.3624,12.2381,5.6563-5.6563,11.4155-11.21,17.38-16.6606-1.5427,25.6076-2.3654,38.2574-2.3654,37.8458-.1028,1.8509-.3083,3.8051-.4111,5.6563-.72,2.7767-2.88,5.45-6.2736,8.0214-7.5072,5.5534-11.6209,8.33-12.5467,8.4333-.5142.1028-1.0284-1.337-1.5426-4.4222q-1.697-9.2559-2.7767-14.192c.5142-2.16,2.2625-4.525,5.3477-6.9932v-.8228c-6.5818,3.1884-13.1637,6.4791-19.54,9.77-2.0568,1.1315-3.1881,2.4682-3.1881,4.0108,0,1.44.8225,4.0108,2.4682,7.9191,2.9822,5.45,5.9646,10.9012,8.8444,16.3515a1.81,1.81,0,0,0,1.3367.6173c1.5426.1029,4.32-1.2343,8.1245-3.9079,10.387-7.199,22.2138-15.5292,35.7889-24.7849,1.954-15.4263,4.0108-30.8525,6.0676-46.2788,1.6455-17.0717,3.291-34.0406,4.8336-51.1125C316.958,174.091,314.3869,172.24,309.2448,169.6688ZM293.51,222.3238c-5.2449,3.8054-10.49,7.61-15.6322,11.5185-2.0568-1.8511-4.1136-3.5994-6.2733-5.4506,1.8511-19.1286,3.7023-38.1543,5.6563-57.2828,5.9648,3.2909,11.8268,6.6847,17.689,10.0782C294.6413,195.0708,294.23,208.8515,293.51,222.3238Z"/>
        <path d="M359.74,158.87a29.6236,29.6236,0,0,1-3.0853,0,15.0821,15.0821,0,0,1-7.0961-2.6738c-4.6278-.3086-7.61.9253-9.05,3.8051-.4114,1.954-.8225,3.908-1.44,5.9648a39.1522,39.1522,0,0,0,7.3018,15.1177,30.4565,30.4565,0,0,0,16.5575-4.0108c1.7486-11.7239,1.6457-17.6887,0-17.9973A9.4164,9.4164,0,0,0,359.74,158.87Z"/>
        <path d="M335.0581,223.5579c-1.6458,13.6777-3.8055,25.0931-6.4791,34.0406a11.0805,11.0805,0,0,1-6.89,7.816c9.564,1.0284,19.2315,2.2625,28.7957,3.7023-4.0108-2.7767-5.348-6.5818-3.908-11.21a308.5354,308.5354,0,0,0,6.7876-31.1608c2.3653-13.4723,4.0108-25.0934,4.7307-35.0691-6.7875-.9255-13.6776-1.8511-20.4654-2.6741C337.2177,201.7555,336.2922,213.2737,335.0581,223.5579Z"/>
        <path d="M404.4762,254.8218a18.4555,18.4555,0,0,0-.6173,2.0568q-1.2337,2.931-6.7876,6.1705l-7.7131,4.6279c-3.2909-2.468-5.2449-4.9362-5.9645-7.3018,1.6454-12.8552,3.1881-25.6076,4.8335-38.4628q3.5481-10.6437,7.0961-21.2882a2.3476,2.3476,0,0,1,2.0568-1.0284c6.17,6.9932,9.8729,11.8268,11.4155,14.3978-.2057,3.4966-2.2626,7.0961-5.862,10.7984,7.5072-2.571,15.1177-5.1421,22.8309-7.5075-.4114-2.571-.9256-5.142-1.3367-7.7131-5.348-4.7307-10.6955-9.3586-16.1464-13.9865a11.29,11.29,0,0,0-4.2165-1.44,20.403,20.403,0,0,0-4.8336-.5142c-9.5643,4.0108-18.9229,8.2273-28.2815,12.5469a131.04,131.04,0,0,0-7.5074,27.87,76.8206,76.8206,0,0,0-.9256,17.0717c6.2734,6.7878,12.341,13.678,18.3058,20.5684,3.4966.6173,7.0961,1.2343,10.5925,1.8511,7.4048-4.6279,14.912-9.05,22.5223-13.4723-2.2626-4.2167-4.6279-8.4332-7.0961-12.7523C406.1217,249.7825,405.299,252.3536,404.4762,254.8218Z"/>
      </g>
    </g>
  </g>
</svg>
